<svg width="25" height="20" viewBox="0 0 25 20" fill="none" xmlns="http://www.w3.org/2000/svg">
<path d="M19.0828 9.16666H5.02181C3.91243 9.16666 3.01309 9.91285 3.01309 10.8333V16.6667C3.01309 17.5871 3.91243 18.3333 5.02181 18.3333H19.0828C20.1922 18.3333 21.0916 17.5871 21.0916 16.6667V10.8333C21.0916 9.91285 20.1922 9.16666 19.0828 9.16666Z" stroke="#D8DBE2" stroke-linecap="round" stroke-linejoin="round"/>
<path d="M7.03052 9.16666V5.83332C7.03052 4.72825 7.5596 3.66845 8.50137 2.88704C9.44314 2.10564 10.7205 1.66666 12.0523 1.66666C13.3842 1.66666 14.6615 2.10564 15.6033 2.88704C16.545 3.66845 17.0741 4.72825 17.0741 5.83332V9.16666" stroke="#D8DBE2" stroke-linecap="round" stroke-linejoin="round"/>
</svg>
