<svg width="245" height="74" viewBox="0 0 245 74" fill="none" xmlns="http://www.w3.org/2000/svg">
<path id="Vector" d="M107.507 16.634H113.947V37.755H107.507V16.634ZM238.267 16.634L238.437 32.7083L225.617 16.634H215.382V37.755H221.577L221.392 21.8455L234.027 37.755H244.352V16.634H238.267ZM25.4323 13.8308L34.4823 4.86178C34.4823 4.86178 35.5423 3.55265 36.5323 3.55265C37.5223 3.55265 38.0673 4.12227 38.5623 4.59196C39.0573 5.06165 47.7823 13.8308 47.7823 13.8308H52.8273L40.9623 1.99868C40.9623 1.99868 39.8523 0.789477 38.8623 0.444705C37.8723 0.099934 37.1073 0 36.6373 0C36.1673 0 35.2023 0.0999339 34.5373 0.419722C33.8673 0.73951 33.3023 0.964361 32.5073 1.75384C31.7173 2.54331 20.4923 13.8358 20.4923 13.8358H25.4323V13.8308ZM37.0273 55.6381C36.9273 55.4732 36.7523 55.3633 36.5573 55.3633C36.1073 55.3583 35.2223 55.2734 34.3023 54.7387C33.8873 54.4989 32.9273 53.9892 32.1973 52.855C31.3523 51.5458 28.0873 45.7347 28.0873 45.7347L13.8373 21.081C13.6223 20.7063 13.8923 20.2366 14.3223 20.2366H21.2773C21.4773 20.2366 21.6623 20.3415 21.7623 20.5114L42.5073 55.6331C42.7073 55.9729 43.1823 56.0079 43.4273 55.7031C43.7423 55.3133 44.1473 54.7937 44.5023 54.289C45.0223 53.5495 45.4623 52.6851 46.6273 50.6165C51.3973 42.1221 63.4173 21.6407 66.0073 17.2286C66.2273 16.8538 65.9573 16.3841 65.5223 16.3841H49.7673C49.5673 16.3841 49.3823 16.4891 49.2823 16.659L39.7173 32.9082C39.6123 33.0831 39.6123 33.3029 39.7173 33.4778L41.4073 36.3809C41.6223 36.7556 42.1673 36.7506 42.3823 36.3759L51.4523 20.5164C51.5523 20.3415 51.7373 20.2316 51.9423 20.2316H59.0423C59.4723 20.2316 59.7473 20.7013 59.5273 21.076L43.7723 48.328C43.5573 48.6977 43.0223 48.7027 42.8023 48.333L23.9823 16.664C23.8823 16.4941 23.6973 16.3891 23.4973 16.3891H7.73734C7.30234 16.3891 7.03234 16.8538 7.24734 17.2286C10.2623 22.4201 26.2073 49.8969 25.7323 49.0825C25.2073 48.1781 27.7023 52.84 29.4873 55.3683C30.2073 56.3826 31.5523 57.6068 33.4123 58.4263C35.2323 59.2307 37.0823 59.0958 38.0923 58.9259C38.4823 58.861 38.6823 58.4263 38.4773 58.0865L37.0273 55.6381ZM92.6273 37.755L104.332 16.634H97.1623L88.6373 32.5884L80.2823 16.634H73.1973L84.4673 37.755H92.6273ZM119.107 31.0244C119.097 31.6041 119.092 31.9738 119.092 32.1387C119.092 33.6577 119.342 34.8169 119.837 35.6214C120.417 36.5608 121.402 37.1754 122.792 37.4602C124.227 37.76 127.252 37.9099 131.867 37.9099C137.917 37.9099 141.667 37.5151 143.122 36.7157C144.672 35.8712 145.442 34.0275 145.442 31.1943C145.442 28.1314 144.517 26.2126 142.672 25.4381C141.857 25.0984 140.457 24.8885 138.477 24.8186C136.772 24.7586 135.722 24.7286 135.317 24.7286H129.322C127.982 24.7286 127.112 24.6786 126.722 24.5737C125.812 24.3339 125.357 23.7742 125.357 22.8848C125.357 22.2253 125.582 21.7606 126.037 21.4908C126.357 21.3059 126.887 21.186 127.632 21.136C128.997 21.0411 130.942 20.9961 133.472 20.9961C135.277 20.9961 136.307 21.0211 136.552 21.076C137.697 21.3109 138.277 21.9804 138.287 23.0697H144.557V22.3402C144.557 20.7612 144.272 19.557 143.707 18.7176C143.087 17.7982 142.027 17.1736 140.532 16.8438C139.407 16.594 136.647 16.4741 132.247 16.4741C129.172 16.4741 127.117 16.5191 126.087 16.614C123.477 16.8488 121.692 17.3635 120.747 18.148C119.602 19.0774 119.027 20.7662 119.027 23.2246C119.027 24.7636 119.222 25.9478 119.617 26.7823C120.132 27.8765 121.032 28.616 122.312 29.0108C123.322 29.3206 125.267 29.4755 128.137 29.4755H133.957C135.817 29.4755 136.897 29.4955 137.207 29.5354C138.447 29.7003 139.067 30.3149 139.067 31.3792C139.067 32.2336 138.642 32.8083 137.797 33.0981C137.342 33.253 136.552 33.3379 135.427 33.3629C132.642 33.4129 131.062 33.4328 130.687 33.4229L128.192 33.3479C127.397 33.3279 126.817 33.253 126.457 33.133C126.012 32.9881 125.722 32.7083 125.577 32.2986C125.497 32.0638 125.442 31.639 125.422 31.0294H119.107M170.667 29.8003C170.647 31.1594 170.227 32.0188 169.412 32.3685C168.762 32.6484 166.627 32.7883 163.002 32.7883C161.462 32.7883 160.462 32.7683 159.997 32.7283C158.622 32.6034 157.697 32.2986 157.227 31.8139C156.637 31.2143 156.347 29.7503 156.347 27.4218C156.347 26.1627 156.367 25.2433 156.407 24.6687C156.532 22.9648 157.337 21.9754 158.822 21.7006C159.382 21.5957 161.197 21.5457 164.272 21.5457C166.212 21.5457 167.237 21.5507 167.352 21.5607C168.887 21.6656 169.817 21.9954 170.137 22.5501C170.302 22.8399 170.412 23.3345 170.462 24.0341H176.607V23.3096C176.607 21.6407 176.387 20.3465 175.942 19.4421C175.372 18.2879 174.357 17.4884 172.892 17.0437C171.662 16.674 168.282 16.4841 162.752 16.4841C158.377 16.4841 155.467 16.7589 154.022 17.3035C152.197 17.9931 151.002 19.2822 150.442 21.171C150.132 22.2203 149.977 24.069 149.977 26.7123C149.977 30.115 150.227 32.5384 150.722 33.9825C151.432 36.0661 153.162 37.2853 155.907 37.6351C157.352 37.8199 159.452 37.9149 162.207 37.9149C165.572 37.9149 167.822 37.8949 168.957 37.8549C170.617 37.795 171.872 37.665 172.717 37.4702C174.432 37.0654 175.587 36.276 176.187 35.0868C176.652 34.1774 176.882 32.7383 176.882 30.7696V29.8102H170.667M195.857 21.5707C197.942 21.5707 199.107 21.5757 199.357 21.5857C200.872 21.6457 201.872 21.7856 202.347 22.0054C203.162 22.3652 203.657 23.1547 203.832 24.3738C203.892 24.8086 203.927 25.653 203.927 26.9122C203.927 28.5511 203.882 29.6104 203.787 30.0851C203.537 31.3442 202.947 32.1237 202.007 32.4185C201.172 32.6883 198.832 32.8232 194.992 32.8232C193.567 32.8232 192.357 32.7883 191.352 32.7133C189.627 32.5884 188.607 31.9688 188.287 30.8546C188.072 30.1001 187.962 28.8309 187.962 27.0471C187.962 25.683 188.007 24.7586 188.102 24.2639C188.317 23.1097 188.797 22.3752 189.542 22.0654C190.332 21.7356 192.442 21.5707 195.857 21.5707ZM194.957 16.4191C192.017 16.4191 189.772 16.4991 188.237 16.649C184.977 16.9787 182.937 18.2429 182.122 20.4415C181.782 21.3608 181.572 22.4601 181.487 23.7343C181.457 24.219 181.442 25.3482 181.442 27.122C181.442 29.7403 181.532 31.5291 181.707 32.4735C182.117 34.712 183.117 36.201 184.697 36.9455C185.822 37.4802 187.637 37.8049 190.147 37.9199C190.807 37.9498 192.672 37.9648 195.737 37.9648C199.287 37.9648 201.847 37.9049 203.417 37.78C206.957 37.5001 209.097 35.9762 209.827 33.203C210.157 31.9538 210.322 30.0001 210.322 27.3369C210.322 26.1327 210.307 25.1134 210.277 24.2889C210.227 22.8648 210.082 21.7356 209.842 20.9011C209.192 18.6127 207.522 17.2236 204.827 16.7389C203.622 16.524 200.337 16.4191 194.957 16.4191ZM238.267 16.634L238.437 32.7083L225.617 16.634H215.382V37.755H221.577L221.392 21.8455L234.027 37.755H244.352V16.634H238.267ZM162.902 49.6471C162.902 48.7027 162.842 47.9882 162.717 47.4935C162.362 46.0994 161.237 45.315 159.347 45.1351C158.502 45.0551 156.882 45.0202 154.492 45.0202C151.412 45.0202 149.382 45.1451 148.397 45.4049C147.157 45.7247 146.337 46.4092 145.932 47.4585C145.602 48.303 145.442 49.822 145.442 52.0055C145.442 53.9692 145.582 55.3433 145.857 56.1228C146.367 57.5718 147.642 58.3713 149.682 58.5312C150.532 58.5962 151.917 58.6311 153.827 58.6311C156.757 58.6311 158.462 58.6261 158.947 58.6112C161.102 58.5512 162.357 57.7018 162.702 56.0578C162.837 55.4083 162.907 54.334 162.907 52.835V50.9762H153.757V53.4796H158.927C158.932 53.6644 158.937 53.7993 158.937 53.8793C158.937 54.4289 158.817 54.8237 158.577 55.0535C158.337 55.2884 157.942 55.4333 157.382 55.4932C157.132 55.5182 156.452 55.5332 155.337 55.5332C153.402 55.5332 152.347 55.5282 152.172 55.5232C150.932 55.4782 150.157 55.1535 149.842 54.5538C149.637 54.1691 149.537 53.3596 149.537 52.1255C149.537 51.1411 149.557 50.4116 149.597 49.9519C149.657 49.2574 149.882 48.7827 150.272 48.5228C150.592 48.308 151.122 48.1981 151.857 48.1981L153.157 48.1781C153.787 48.1631 154.317 48.1631 154.752 48.1681H156.187H157.247C158.317 48.1881 158.872 48.6827 158.907 49.6521H162.902M170.197 48.4079H176.732C177.637 48.4079 178.222 48.5079 178.482 48.7127C178.792 48.9476 178.942 49.4922 178.942 50.3416C178.942 51.0512 178.712 51.4959 178.252 51.6857C177.982 51.7957 177.427 51.8556 176.582 51.8556H170.197V48.4079ZM170.197 58.5262V55.1385H176.477C177.042 55.1385 177.432 55.1534 177.657 55.1884C178.372 55.2934 178.732 55.848 178.732 56.8573V58.5262H182.872V56.4026C182.872 55.0985 182.547 54.2441 181.897 53.8393C181.577 53.6345 180.937 53.5095 179.982 53.4646C179.692 53.4496 179.472 53.4396 179.312 53.4246C180.642 53.2347 181.512 52.9949 181.917 52.7051C182.677 52.1654 183.057 51.0961 183.057 49.4822C183.057 48.4829 182.937 47.6734 182.702 47.0638C182.362 46.1844 181.662 45.6098 180.597 45.335C180.012 45.1851 179.052 45.1101 177.717 45.1101H166.127V58.5212H170.197V58.5262ZM195.182 48.248C196.507 48.248 197.247 48.253 197.402 48.258C198.367 48.298 198.997 48.3879 199.297 48.5228C199.817 48.7527 200.127 49.2524 200.242 50.0268C200.282 50.3017 200.302 50.8413 200.302 51.6358C200.302 52.6751 200.272 53.3496 200.212 53.6494C200.057 54.4489 199.677 54.9436 199.082 55.1335C198.552 55.3033 197.067 55.3883 194.627 55.3883C193.722 55.3883 192.952 55.3633 192.317 55.3183C191.222 55.2384 190.572 54.8437 190.372 54.1391C190.232 53.6594 190.167 52.855 190.167 51.7207C190.167 50.8563 190.197 50.2667 190.257 49.9519C190.392 49.2174 190.702 48.7527 191.172 48.5578C191.677 48.358 193.017 48.248 195.182 48.248ZM194.612 44.9802C192.742 44.9802 191.322 45.0302 190.347 45.1251C188.277 45.335 186.982 46.1394 186.462 47.5335C186.247 48.1181 186.112 48.8127 186.062 49.6271C186.042 49.9369 186.032 50.6514 186.032 51.7807C186.032 53.4446 186.087 54.5788 186.197 55.1784C186.457 56.5975 187.092 57.5469 188.097 58.0166C188.812 58.3563 189.962 58.5612 191.557 58.6361C191.977 58.6561 193.162 58.6661 195.107 58.6661C197.362 58.6661 198.987 58.6261 199.982 58.5462C202.232 58.3713 203.587 57.402 204.052 55.6381C204.262 54.8437 204.367 53.6045 204.367 51.9156C204.367 51.1511 204.357 50.5015 204.337 49.9819C204.302 49.0775 204.212 48.3629 204.062 47.8333C203.647 46.3793 202.587 45.4998 200.877 45.1901C200.117 45.0501 198.027 44.9802 194.612 44.9802ZM207.532 52.3253C207.532 53.8043 207.612 54.8986 207.767 55.6082C208.152 57.342 209.442 58.3164 211.632 58.5262C212.452 58.6062 213.897 58.6411 215.967 58.6411C218.492 58.6411 219.477 58.6461 218.937 58.6611C220.197 58.6261 221.177 58.4962 221.877 58.2664C223.337 57.7867 224.222 56.8973 224.532 55.5832C224.682 54.9386 224.757 53.7943 224.757 52.1354V45.1101H220.677V51.261V52.4203C220.682 53.2797 220.617 53.9093 220.482 54.319C220.272 54.9436 219.707 55.2884 218.782 55.3583C218.192 55.4033 217.167 55.4283 215.697 55.4283C214.707 55.4283 213.982 55.3983 213.517 55.3383C212.467 55.2084 211.867 54.7237 211.712 53.8843C211.652 53.5695 211.622 53.0199 211.622 52.2254V52.0705V51.7257V45.1151H207.532V52.3253ZM232.232 48.3879H238.167C239.012 48.3879 239.572 48.5029 239.847 48.7327C240.162 48.9925 240.317 49.5322 240.317 50.3416C240.317 51.0212 240.122 51.4759 239.727 51.7057C239.437 51.8756 238.917 51.9606 238.162 51.9606H232.227V48.3879H232.232ZM232.232 58.5262V55.2234H238.797C239.722 55.2234 240.457 55.1934 240.997 55.1335C241.792 55.0485 242.417 54.8586 242.877 54.5638C243.887 53.9143 244.392 52.4003 244.392 50.0169C244.392 48.9576 244.292 48.1181 244.097 47.5035C243.817 46.6191 243.297 45.9895 242.542 45.6198C242.027 45.3649 241.352 45.205 240.527 45.1501C240.247 45.1301 239.552 45.1201 238.442 45.1201H228.162V58.5312H232.232V58.5262ZM62.2673 28.3112L68.6723 34.732C68.6723 34.732 69.3123 35.3266 69.5623 35.8912C69.6973 36.201 69.7123 36.3709 69.7123 36.6207C69.7123 36.9055 69.6373 37.4702 69.2923 37.8899C68.9473 38.3096 38.7073 68.4746 38.7073 68.4746C38.7073 68.4746 38.1873 69.0692 37.7923 69.3141C37.3973 69.5589 37.0773 69.6089 36.7773 69.6339C36.4823 69.6588 35.9123 69.6089 35.5923 69.384C35.2723 69.1592 34.6523 68.5696 34.6523 68.5696L4.59234 38.4845L4.19234 38.1147C4.19234 38.1147 3.83734 37.69 3.76234 37.5201C3.68734 37.3452 3.58734 37.0405 3.57734 36.8306C3.56234 36.6207 3.57734 36.3609 3.65234 36.0261C3.72734 35.6913 3.92734 35.4165 4.19234 35.1267C4.45734 34.8369 10.8823 28.4412 10.8823 28.4412L9.08734 25.1883L1.67234 32.6084C1.67234 32.6084 0.837337 33.4478 0.502337 34.2873C0.167337 35.1267 -0.0426637 35.9312 0.00733626 36.9405C0.0573363 37.9548 0.402338 38.7293 0.612338 39.199C0.822338 39.6687 1.34234 40.2983 1.44234 40.4082C1.54234 40.5182 32.6273 71.5676 32.6273 71.5676C32.6273 71.5676 33.4223 72.3421 34.0773 72.6269C34.7323 72.9117 35.4873 73.2215 36.3523 73.2215C37.2173 73.2215 37.7473 73.2115 38.8623 72.8018C39.9773 72.392 41.1123 71.1229 41.1123 71.1229L71.7573 40.4882C71.7573 40.4882 72.5123 39.7337 72.8673 38.7743C73.2273 37.8099 73.2373 37.4152 73.2623 37.0554C73.2873 36.6957 73.3123 35.8812 73.0773 35.0668C72.8423 34.2523 72.3973 33.5578 72.2723 33.3879C72.1473 33.213 71.5573 32.5484 71.4073 32.3885C71.2573 32.2286 64.0873 25.0884 64.0873 25.0884L62.2673 28.3112Z" fill="url(#paint0_linear_4_268)"/>
<defs>
<linearGradient id="paint0_linear_4_268" x1="163.224" y1="-30.1731" x2="86.4609" y2="102.872" gradientUnits="userSpaceOnUse">
<stop stop-color="#11AA99"/>
<stop offset="0.3991" stop-color="#189DC9"/>
<stop offset="0.5" stop-color="#1A9AD6"/>
<stop offset="0.707" stop-color="#2071B5"/>
<stop offset="1" stop-color="#2A3180"/>
</linearGradient>
</defs>
</svg>
